<?xml version="1.0" encoding="UTF-8" standalone="no"?>
<svg
   xmlns:dc="http://purl.org/dc/elements/1.1/"
   xmlns:cc="http://creativecommons.org/ns#"
   xmlns:rdf="http://www.w3.org/1999/02/22-rdf-syntax-ns#"
   xmlns:svg="http://www.w3.org/2000/svg"
   xmlns="http://www.w3.org/2000/svg"
   xmlns:sodipodi="http://sodipodi.sourceforge.net/DTD/sodipodi-0.dtd"
   xmlns:inkscape="http://www.inkscape.org/namespaces/inkscape"
   width="120"
   height="450"
   version="1.0"
   id="svg2434"
   sodipodi:version="0.32"
   inkscape:version="0.46"
   sodipodi:docname="Wiimote.svg"
   inkscape:output_extension="org.inkscape.output.svg.inkscape">
  <metadata
     id="metadata2441">
    <rdf:RDF>
      <cc:Work
         rdf:about="">
        <dc:format>image/svg+xml</dc:format>
        <dc:type
           rdf:resource="http://purl.org/dc/dcmitype/StillImage" />
      </cc:Work>
    </rdf:RDF>
  </metadata>
  <defs
     id="defs2439">
    <inkscape:perspective
       sodipodi:type="inkscape:persp3d"
       inkscape:vp_x="0 : 225 : 1"
       inkscape:vp_y="0 : 1000 : 0"
       inkscape:vp_z="120 : 225 : 1"
       inkscape:persp3d-origin="60 : 150 : 1"
       id="perspective12" />
  </defs>
  <sodipodi:namedview
     inkscape:window-height="718"
     inkscape:window-width="1023"
     inkscape:pageshadow="2"
     inkscape:pageopacity="0.0"
     guidetolerance="10.0"
     gridtolerance="10.0"
     objecttolerance="10.0"
     borderopacity="1.0"
     bordercolor="#666666"
     pagecolor="#ffffff"
     id="base"
     showgrid="false"
     inkscape:zoom="1.1044444"
     inkscape:cx="60"
     inkscape:cy="261.2173"
     inkscape:window-x="0"
     inkscape:window-y="25"
     inkscape:current-layer="svg2434" />
  <g
     id="g2572"
     transform="translate(154, -172)" />
  <g
     id="g3472"
     transform="matrix(0, 1, -1, 0, 115, 5)">
    <path
       sodipodi:nodetypes="ccccccccccssscccccccccccccccccccccccsssccsssccsssc"
       id="path2436"
       d="M 15,0 C 5,0 0,5 0,15 L 0,95 C 0,105 5,110 15,110 L 425,110 C 435,110 440,105 440,95 L 440,15 C 440,5 435,0 425,0 L 15,0 z M 210,17 C 215,17 218,20 218,25 C 218,30 215,33 210,33 C 205,33 202,30 202,25 C 202,20 205,17 210,17 z M 64,21 L 78,21 C 79,21 80,22 80,23 L 80,46 L 103,46 C 104,46 105,47 105,48 L 105,62 C 105,63 104,64 103,64 L 80,64 L 80,87 C 80,88 79,89 78,89 L 64,89 C 63,89 62,88 62,87 L 62,64 L 40,64 C 39,64 38,63 38,62 L 38,48 C 38,47 39,46 40,46 L 62,46 L 62,23 C 62,22 63,21 64,21 z M 210,47 C 215,47 218,50 218,55 C 218,60 215,63 210,63 C 205,63 202,60 202,55 C 202,50 205,47 210,47 z M 20,74 C 25,74 29,78 29,83 C 29,88 25,92 20,92 C 15,92 11,88 11,83 C 11,78 15,74 20,74 z M 210,77 C 215,77 218,80 218,85 C 218,90 215,93 210,93 C 205,93 202,90 202,85 C 202,80 205,77 210,77 z"
       style="fill-rule: evenodd;" />
    <path
       id="path3453"
       d="M 148,24.285717 C 148,35.576625 140.4,42.740261 128.57143,42.740261 C 116.74286,42.740261 109.14286,35.576625 109.14286,24.285717 C 109.14286,12.994809 116.74286,5.8311729 128.57143,5.8311729 C 140.4,5.8311729 148,12.994809 148,24.285717 z"
       style="fill: rgb(255, 255, 255); fill-opacity: 1; stroke: rgb(47, 118, 118); stroke-width: 0pt; stroke-miterlimit: 4; stroke-opacity: 1;"
       transform="translate(21.4286, 30.6688)"
       sodipodi:nodetypes="csssc" />
    <path
       id="path3455"
       d="M 301.94803,40.844158 C 301.94803,48.909093 294.96621,55.454547 286.36362,55.454547 C 277.76102,55.454547 270.7792,48.909093 270.7792,40.844158 C 270.7792,32.779224 277.76102,26.233769 286.36362,26.233769 C 294.96621,26.233769 301.94803,32.779224 301.94803,40.844158 z"
       style="fill: rgb(255, 255, 255); fill-opacity: 1; stroke: rgb(47, 118, 118); stroke-width: 0pt; stroke-miterlimit: 4; stroke-opacity: 1;"
       transform="translate(28.0649, 13.6364)" />
    <path
       id="path3457"
       d="M 301.94803,40.844158 C 301.94803,48.909093 294.96621,55.454547 286.36362,55.454547 C 277.76102,55.454547 270.7792,48.909093 270.7792,40.844158 C 270.7792,32.779224 277.76102,26.233769 286.36362,26.233769 C 294.96621,26.233769 301.94803,32.779224 301.94803,40.844158 z"
       style="fill: rgb(255, 255, 255); fill-opacity: 1; stroke: rgb(47, 118, 118); stroke-width: 0pt; stroke-miterlimit: 4; stroke-opacity: 1;"
       transform="translate(85.5649, 13.6364)" />
  </g>
</svg>
